<?xml version="1.0" encoding="UTF-8" standalone="no"?> <svg width="52" height="52" viewBox="0 0 52 52" fill="none" xmlns="http://www.w3.org/2000/svg">
<path d="M44.2042 7.56094C39.3489 2.68092 32.8752 0 25.9814 0C11.7862 0 0.22238 11.5638 0.210026 25.7591C0.210026 30.3055 1.39605 34.7284 3.64456 38.6448L0 52L13.664 48.4172C17.4321 50.468 21.6697 51.5552 25.9814 51.5552H25.9938C40.189 51.5552 51.7528 39.9914 51.7652 25.7838C51.7528 18.9024 49.0719 12.4286 44.2042 7.56094ZM25.9814 47.1941C22.1268 47.1941 18.3587 46.1563 15.0724 44.2043L14.2941 43.7349L6.18958 45.8598L8.35161 37.953L7.84508 37.1376C5.6954 33.7277 4.57115 29.7866 4.57115 25.7467C4.57115 13.9606 14.1829 4.34878 25.9938 4.34878C31.7139 4.34878 37.0881 6.58494 41.1403 10.6249C45.1802 14.6771 47.404 20.0513 47.404 25.7714C47.3917 37.5947 37.7799 47.1941 25.9814 47.1941ZM37.7305 31.158C37.0881 30.8368 33.9253 29.2801 33.3323 29.0577C32.7393 28.8477 32.3069 28.7365 31.8868 29.379C31.4544 30.0214 30.219 31.4792 29.8484 31.8993C29.4777 32.3317 29.0947 32.3811 28.4523 32.0599C27.8099 31.7387 25.7343 31.0592 23.2758 28.8601C21.3609 27.1551 20.076 25.0425 19.693 24.4001C19.3224 23.7577 19.6559 23.4117 19.9772 23.0905C20.2613 22.8064 20.6196 22.3369 20.9408 21.9663C21.262 21.5956 21.3732 21.3238 21.5832 20.8914C21.7933 20.459 21.6944 20.0884 21.5338 19.7672C21.3732 19.446 20.0883 16.2709 19.5447 14.986C19.0259 13.7258 18.4946 13.8988 18.0993 13.8864C17.7286 13.8617 17.2962 13.8617 16.8638 13.8617C16.4314 13.8617 15.7396 14.0223 15.1466 14.6648C14.5535 15.3072 12.8981 16.8639 12.8981 20.039C12.8981 23.2141 15.2083 26.2656 15.5296 26.698C15.8508 27.1304 20.0636 33.6289 26.525 36.421C28.057 37.0881 29.2553 37.4835 30.1943 37.78C31.7386 38.2742 33.1346 38.2 34.2466 38.0394C35.482 37.8541 38.0517 36.4828 38.5953 34.9755C39.1266 33.4683 39.1266 32.1834 38.9659 31.9116C38.8053 31.6398 38.3729 31.4792 37.7305 31.158Z" fill="black"/>
</svg>
